<?xml version="1.0" encoding="UTF-8" standalone="no"?><!DOCTYPE svg PUBLIC "-//W3C//DTD SVG 1.1//EN" "http://www.w3.org/Graphics/SVG/1.1/DTD/svg11.dtd"><svg width="2250px" height="2250px" version="1.1" xmlns="http://www.w3.org/2000/svg" xmlns:xlink="http://www.w3.org/1999/xlink" xml:space="preserve" xmlns:serif="http://www.serif.com/" style="fill-rule:evenodd;clip-rule:evenodd;stroke-linejoin:round;stroke-miterlimit:2;"><g transform="matrix(1,0,0,1,1544.36,1102.36)"><g transform="matrix(480.197,0,0,480.197,0,0)"><path d="M0.018,-0.161C0.013,-0.068 0.091,0.013 0.184,0.013C0.286,0.013 0.361,-0.058 0.361,-0.161C0.361,-0.26 0.29,-0.295 0.208,-0.321C0.16,-0.336 0.112,-0.352 0.112,-0.412C0.112,-0.454 0.146,-0.488 0.188,-0.488C0.236,-0.488 0.273,-0.459 0.273,-0.411L0.347,-0.411C0.347,-0.491 0.278,-0.559 0.196,-0.559C0.11,-0.559 0.038,-0.495 0.038,-0.406C0.038,-0.367 0.053,-0.328 0.082,-0.302C0.109,-0.276 0.146,-0.265 0.181,-0.254C0.235,-0.239 0.287,-0.215 0.287,-0.149C0.287,-0.095 0.244,-0.058 0.191,-0.058C0.135,-0.058 0.09,-0.105 0.092,-0.161L0.018,-0.161Z" style="fill:#404040;fill-rule:nonzero;"/></g></g><g><g transform="matrix(1,0,0,1,317.023,1453.45)"><g transform="matrix(370.685,0,0,370.685,0,0)"><path d="M0.329,-0.341L0.329,-0.274L0.742,-0.274C0.705,-0.145 0.575,-0.058 0.443,-0.058C0.267,-0.058 0.118,-0.192 0.118,-0.372C0.118,-0.456 0.159,-0.541 0.22,-0.597C0.281,-0.653 0.361,-0.68 0.44,-0.68C0.543,-0.68 0.65,-0.629 0.702,-0.542L0.786,-0.542C0.767,-0.599 0.705,-0.656 0.657,-0.688C0.593,-0.73 0.517,-0.751 0.44,-0.751C0.334,-0.751 0.235,-0.714 0.158,-0.638C0.089,-0.57 0.044,-0.471 0.044,-0.373C0.044,-0.157 0.227,0.013 0.44,0.013C0.639,0.013 0.817,-0.138 0.831,-0.341L0.329,-0.341Z" style="fill:#404040;fill-rule:nonzero;"/></g><g transform="matrix(370.685,0,0,370.685,323.237,0)"><path d="M0.011,-0L0.091,-0L0.198,-0.248L0.542,-0.248L0.649,-0L0.729,-0L0.412,-0.739L0.33,-0.739L0.011,-0ZM0.227,-0.315L0.371,-0.654L0.513,-0.315L0.227,-0.315Z" style="fill:#404040;fill-rule:nonzero;"/></g><g transform="matrix(370.685,0,0,370.685,597.544,0)"><path d="M0.076,-0L0.456,-0L0.456,-0.067L0.15,-0.067L0.15,-0.739L0.076,-0.739L0.076,-0Z" style="fill:#404040;fill-rule:nonzero;"/></g><g transform="matrix(370.685,0,0,370.685,768.801,0)"><path d="M0.076,-0L0.456,-0L0.456,-0.067L0.15,-0.067L0.15,-0.739L0.076,-0.739L0.076,-0Z" style="fill:#404040;fill-rule:nonzero;"/></g><g transform="matrix(370.685,0,0,370.685,940.057,0)"><path d="M0.076,-0L0.48,-0L0.48,-0.067L0.15,-0.067L0.15,-0.339L0.469,-0.339L0.469,-0.406L0.15,-0.406L0.15,-0.672L0.48,-0.672L0.48,-0.739L0.076,-0.739L0.076,-0Z" style="fill:#404040;fill-rule:nonzero;"/></g><g transform="matrix(370.685,0,0,370.685,1138.74,0)"><path d="M0.076,-0L0.15,-0L0.15,-0.672L0.267,-0.672C0.325,-0.672 0.385,-0.672 0.434,-0.637C0.476,-0.608 0.503,-0.556 0.503,-0.505C0.503,-0.439 0.468,-0.383 0.407,-0.355C0.358,-0.333 0.298,-0.335 0.246,-0.335L0.224,-0.335L0.475,-0L0.567,-0L0.359,-0.276C0.479,-0.279 0.577,-0.377 0.577,-0.498C0.577,-0.584 0.537,-0.66 0.462,-0.703C0.4,-0.738 0.322,-0.739 0.252,-0.739L0.076,-0.739L0.076,-0Z" style="fill:#404040;fill-rule:nonzero;"/></g></g><g transform="matrix(1,0,0,1,1673.36,1453.45)"><g transform="matrix(370.685,0,0,370.685,0,0)"><path d="M0.259,-0L0.333,-0L0.333,-0.247L0.59,-0.739L0.509,-0.739L0.296,-0.324L0.083,-0.739L0.002,-0.739L0.259,-0.247L0.259,-0Z" style="fill:#404040;fill-rule:nonzero;"/></g></g></g><path d="M1495.81,864.577L1529.14,864.577L1599.98,791.66L1529.14,791.66L1495.81,860.41L1495.81,864.577Z" style="fill:#006943;"/><g transform="matrix(1,0,0,1,506.508,1096.19)"><g transform="matrix(415.604,0,0,415.604,0,0)"><path d="M0.06,-0L0.31,-0L0.31,-0.29C0.31,-0.357 0.343,-0.382 0.395,-0.382C0.439,-0.382 0.462,-0.364 0.462,-0.309L0.462,-0L0.704,-0L0.704,-0.29C0.704,-0.357 0.737,-0.382 0.789,-0.382C0.833,-0.382 0.856,-0.364 0.856,-0.309L0.856,-0L1.106,-0L1.106,-0.377C1.106,-0.51 1.01,-0.562 0.89,-0.562C0.789,-0.562 0.723,-0.521 0.689,-0.471C0.66,-0.525 0.616,-0.562 0.508,-0.562C0.404,-0.562 0.343,-0.523 0.304,-0.472L0.302,-0.472L0.302,-0.547L0.06,-0.547L0.06,-0Z" style="fill:#006943;fill-rule:nonzero;"/></g><g transform="matrix(415.604,0,0,415.604,484.594,0)"><path d="M0.314,-0.381C0.326,-0.434 0.383,-0.443 0.44,-0.443C0.511,-0.443 0.556,-0.426 0.556,-0.39C0.556,-0.36 0.539,-0.348 0.489,-0.345L0.278,-0.335C0.093,-0.327 0.022,-0.263 0.022,-0.163C0.022,-0.023 0.128,0.022 0.296,0.022C0.429,0.022 0.514,-0.002 0.57,-0.054C0.571,-0.034 0.574,-0.016 0.579,-0L0.835,-0C0.823,-0.018 0.812,-0.043 0.812,-0.085L0.812,-0.349C0.812,-0.512 0.711,-0.569 0.456,-0.569C0.324,-0.569 0.233,-0.559 0.172,-0.531C0.11,-0.502 0.079,-0.456 0.064,-0.381L0.314,-0.381ZM0.562,-0.225C0.562,-0.131 0.469,-0.11 0.385,-0.11C0.323,-0.11 0.292,-0.134 0.292,-0.172C0.292,-0.207 0.314,-0.222 0.36,-0.226C0.449,-0.234 0.52,-0.24 0.562,-0.249L0.562,-0.225Z" style="fill:#006943;fill-rule:nonzero;"/></g><g transform="matrix(415.604,0,0,415.604,846.17,0)"><path d="M0.06,-0L0.31,-0L0.31,-0.547L0.06,-0.547L0.06,-0ZM0.06,-0.601L0.31,-0.601L0.31,-0.739L0.06,-0.739L0.06,-0.601Z" style="fill:#006943;fill-rule:nonzero;"/></g></g><rect x="1359.86" y="763.409" width="135.643" height="91.01" style="fill:#fff;"/></svg>